<?xml version="1.0" encoding="UTF-8"?>
<svg version="1.1" xmlns="http://www.w3.org/2000/svg" width="840" height="932">
<path d="M0 0 C277.2 0 554.4 0 840 0 C840 307.56 840 615.12 840 932 C562.8 932 285.6 932 0 932 C0 624.44 0 316.88 0 0 Z " fill="#FEFEFE" transform="translate(0,0)"/>
<path d="M0 0 C0.74878418 0.00644531 1.49756836 0.01289063 2.26904297 0.01953125 C10.64010843 0.29608025 15.64489653 3.24570189 21.5 9.125 C29.79354089 19.8199765 28.09934076 34.19753016 28.13671875 47.01171875 C28.15358503 49.19319151 28.17173787 51.37465467 28.19111633 53.55610657 C28.23841067 59.26550292 28.26835279 64.97486031 28.29455566 70.68438721 C28.32446538 76.52339364 28.37095974 82.36226614 28.41601562 88.20117188 C28.50181457 99.63404422 28.56926354 111.06694431 28.625 122.5 C29.00809326 121.81873047 29.39118652 121.13746094 29.78588867 120.43554688 C30.3038501 119.53900391 30.82181152 118.64246094 31.35546875 117.71875 C32.11573364 116.3874707 32.11573364 116.3874707 32.89135742 115.02929688 C36.5244523 109.72879512 41.87457515 106.73904741 48 105.0625 C58.12801936 103.34798363 66.07372056 105.71503674 74.375 111.375 C81.49695864 118.10129427 82.8927431 125.54166354 83.25 134.875 C83.28867187 135.70644531 83.32734375 136.53789062 83.3671875 137.39453125 C83.46074246 139.42935156 83.54392713 141.46464416 83.625 143.5 C84.06199219 142.25734375 84.49898437 141.0146875 84.94921875 139.734375 C87.59767786 132.69043573 92.11178018 128.26319368 98.625 124.5 C105.67379565 122.15040145 115.06207458 122.34429205 121.88671875 125.45703125 C127.68173146 128.93403887 133.34919231 133.83670292 135.19140625 140.5703125 C135.81812221 144.80487979 135.99310689 149.03903826 136.1875 153.3125 C136.23068359 154.19615234 136.27386719 155.07980469 136.31835938 155.99023438 C136.42391536 158.15999623 136.52491071 160.3299791 136.625 162.5 C136.86299316 161.97325684 137.10098633 161.44651367 137.34619141 160.90380859 C140.74187147 153.70839717 145.34606153 148.78210051 152.4375 145 C159.8480041 143.83756798 167.23378487 143.22452543 173.8828125 147.18359375 C181.29806694 152.78659991 184.71820324 160.24926668 186.27734375 169.27734375 C186.83758238 173.34101237 187.25485674 177.41517314 187.625 181.5 C187.75527588 182.75683594 187.75527588 182.75683594 187.88818359 184.0390625 C188.69900839 192.47047586 188.8446463 200.87105953 188.86523438 209.33447266 C188.87492905 211.73245094 188.90606017 214.12956545 188.9375 216.52734375 C189.00744163 226.8820293 187.93553231 236.39435329 185.625 246.5 C185.29085083 247.97110229 185.29085083 247.97110229 184.94995117 249.47192383 C176.34140471 285.45235815 152.61190937 316.43392727 121.73046875 336.21289062 C115.92282502 339.76320344 109.80890298 342.67343185 103.625 345.5 C102.70025879 345.93119141 102.70025879 345.93119141 101.75683594 346.37109375 C93.88119324 350.02478582 86.14013441 352.79904745 77.625 354.5 C76.88660889 354.66701416 76.14821777 354.83402832 75.38745117 355.00610352 C67.04960212 356.74865539 58.79149551 356.93902392 50.3125 356.9375 C49.5661026 356.93889984 48.8197052 356.94029968 48.0506897 356.94174194 C35.06183297 356.92178232 23.05048177 355.48898192 10.625 351.5 C9.41714844 351.11585938 8.20929688 350.73171875 6.96484375 350.3359375 C-18.07393196 341.39134448 -38.96706029 325.49875139 -57.43676758 306.71948242 C-59.32820656 304.79653176 -61.23043431 302.88478594 -63.13476562 300.97460938 C-68.57561686 295.49897406 -73.96754241 290.01939155 -78.97583008 284.13989258 C-81.1572338 281.5831854 -83.45935072 279.14668054 -85.75 276.6875 C-90.07469833 272.01225082 -94.13461671 267.17744591 -98.12890625 262.21484375 C-100.4633059 259.39326505 -102.89490598 256.69409288 -105.375 254 C-108.66831699 250.42207537 -111.82151321 246.78460334 -114.875 243 C-118.76492657 238.18226409 -122.8565821 233.5968542 -127.05078125 229.04296875 C-128.97605906 226.93648833 -130.84094181 224.7998352 -132.6875 222.625 C-136.50646301 218.21075499 -140.67561873 214.14688211 -144.8449707 210.06689453 C-150.02178062 204.9710325 -152.99132865 201.56691635 -153.6875 194.1875 C-153.11202895 187.39694158 -149.867401 183.7351209 -145.0625 179.25 C-137.0487202 172.56969245 -130.86319935 171.59237654 -120.44384766 172.28417969 C-108.18748781 173.56275204 -97.19412261 178.23541654 -86.53515625 184.1953125 C-85.65698242 184.68507568 -84.77880859 185.17483887 -83.87402344 185.67944336 C-82.1198155 186.66415278 -80.37143271 187.65933272 -78.62988281 188.66625977 C-70.41832175 193.3181333 -61.72001153 196.33960984 -52.23828125 193.96484375 C-44.11979129 191.13497011 -39.30155051 187.08779356 -35.375 179.5 C-35.0140625 178.80390625 -34.653125 178.1078125 -34.28125 177.390625 C-26.98426805 161.35937678 -27.95875837 142.81481046 -28.02544022 125.6418457 C-28.04207342 121.3529398 -28.0332133 117.06429691 -28.02059937 112.77539062 C-27.99075616 101.36610098 -27.99197307 89.95686574 -28.01085222 78.54755688 C-28.02321565 71.01563618 -28.02125707 63.48402164 -27.99246442 55.95213604 C-27.97733461 51.69789779 -27.98455193 47.44449902 -28.00917459 43.19031429 C-28.0216856 39.91847996 -28.00164064 36.64680719 -27.98681641 33.375 C-28.00682457 31.63392723 -28.00682457 31.63392723 -28.02723694 29.85768127 C-27.9238845 19.57161932 -24.66748518 12.2439445 -17.4140625 4.97265625 C-11.85449774 0.95741503 -6.69807551 -0.06024804 0 0 Z " fill="#BEA7C7" transform="translate(392.375,327.5)"/>
<path d="M0 0 C7.46326244 4.59514521 13.63031763 11.32063908 19.76806641 17.50732422 C21.38612346 19.13619782 23.01472832 20.75398171 24.64453125 22.37109375 C25.68814259 23.41602528 26.73113412 24.46157629 27.7734375 25.5078125 C28.25469086 25.9850174 28.73594421 26.46222229 29.23178101 26.95388794 C33.26510255 31.04356166 35.79547933 34.15931396 36.4375 39.9375 C36.25126393 44.22902681 34.86985359 46.7525341 32 50 C27.95993873 52.63482257 24.79190871 53.86254357 20 53 C15.86903096 50.49781304 12.38553717 47.42013826 9 44 C8.99413376 45.01762421 8.98826752 46.03524841 8.98222351 47.08370972 C8.92484493 56.70510547 8.85200495 66.3262785 8.76428509 75.94744682 C8.71968446 80.89300765 8.68040591 85.83848806 8.65356445 90.78417969 C8.62742829 95.5629951 8.58695379 100.3414993 8.53681374 105.120121 C8.52021448 106.93718703 8.50865721 108.75430681 8.50238609 110.57143784 C8.45299256 123.57596013 8.37238667 135.0063377 -1 145 C-7.03664631 150.95973311 -13.42835046 156.54823514 -19.84375 162.09375 C-22.77240362 164.68284958 -25.63398177 167.34194681 -28.5 170 C-32.56014963 173.7655356 -36.65411402 177.47220026 -40.84375 181.09375 C-44.35145526 184.1947648 -47.76862894 187.39364755 -51.20068359 190.57788086 C-54.88127815 193.98617828 -58.60674581 197.33067926 -62.4140625 200.59765625 C-62.93742188 201.06042969 -63.46078125 201.52320313 -64 202 C-64.52005615 202.40565186 -65.0401123 202.81130371 -65.57592773 203.22924805 C-67.59364435 205.73816261 -67.36884552 207.54389054 -67.37109375 210.734375 C-67.39719727 212.43207031 -67.39719727 212.43207031 -67.42382812 214.1640625 C-67.43288309 216.53905095 -67.43814242 218.91405715 -67.43945312 221.2890625 C-67.55093035 228.06995281 -67.86738443 232.51795893 -72 238 C-75.41749305 240.94284124 -78.49257938 241.54360033 -83.0078125 241.34765625 C-87.44763209 240.5728642 -90.14059162 238.20754834 -92.6875 234.62890625 C-94.30030566 230.16969061 -94.01207112 226.67675213 -93.80493164 221.98754883 C-93.28846604 210.31794618 -93.28846604 210.31794618 -98.3359375 200.203125 C-101.59746144 196.97098067 -105.14017835 194.19561323 -108.88134766 191.54150391 C-114.82393795 187.21775245 -120.13034705 182.00504689 -125.5 177 C-128.96201735 173.7875331 -132.42652808 170.58893335 -136 167.5 C-140.16008221 163.90399673 -144.1774717 160.15824866 -148.20507812 156.41552734 C-151.25366106 153.58890264 -154.33525906 150.82222239 -157.5 148.125 C-164.00241334 142.44221859 -169.14558494 136.02537534 -170.38757324 127.26681519 C-170.55441229 124.23364396 -170.60581108 121.22132043 -170.609375 118.18359375 C-170.62591125 117.08652603 -170.64244751 115.98945831 -170.65948486 114.85914612 C-170.70773038 111.38520579 -170.72928438 107.91170249 -170.75 104.4375 C-170.77817917 102.06963975 -170.8081093 99.70179965 -170.83984375 97.33398438 C-170.91348297 91.55606831 -170.96526251 85.77827397 -171 80 C-171.54269531 80.49371094 -172.08539063 80.98742187 -172.64453125 81.49609375 C-173.35996094 82.13675781 -174.07539063 82.77742188 -174.8125 83.4375 C-175.52019531 84.07558594 -176.22789062 84.71367187 -176.95703125 85.37109375 C-179.67258182 87.53626504 -181.82342856 87.97623077 -185.25 88.4375 C-190.23409112 87.8560227 -192.67351517 85.62718402 -196 82 C-197.17006856 79.65986288 -197.33836406 77.98542048 -197.5 75.375 C-197.5721875 74.55773437 -197.644375 73.74046875 -197.71875 72.8984375 C-196.54941696 68.18297493 -193.32773895 65.42754989 -190 62 C-189.09942871 61.0625293 -188.19885742 60.12505859 -187.27099609 59.15917969 C-184.7189957 56.51928147 -182.13915212 53.90841493 -179.54760742 51.30737305 C-177.9300729 49.68002785 -176.32352466 48.04230393 -174.71679688 46.40429688 C-173.67513831 45.35611538 -172.63284269 44.30856651 -171.58984375 43.26171875 C-171.11780014 42.77732834 -170.64575653 42.29293793 -170.15940857 41.79386902 C-166.31191429 37.97161615 -162.47776573 35.48478025 -157.125 34.4375 C-147.92252841 36.09394489 -140.64630731 46.12169929 -134.3125 52.5625 C-133.28367775 53.6013817 -132.25438366 54.63979635 -131.22460938 55.67773438 C-129.33079376 57.58772815 -127.4403278 59.50081809 -125.55200195 61.41625977 C-123.79601064 63.19408968 -122.01995564 64.9522527 -120.2277832 66.69360352 C-117.30002082 69.72467982 -116.98233346 71.63735836 -116.73046875 75.71484375 C-117.19967375 79.69288617 -119.21250557 82.23606186 -122 85 C-125.41079657 87.61494404 -128.81412848 87.42568185 -133 87 C-136.92210327 85.36511917 -140.07867751 83.07090828 -143 80 C-143.25483476 86.52787269 -143.42918602 93.05445239 -143.54931641 99.58618164 C-143.59941925 101.80476806 -143.66752565 104.02302732 -143.75439453 106.24047852 C-144.69294511 118.76976777 -144.69294511 118.76976777 -140.94482422 130.31445312 C-138.41535104 132.58798749 -135.93113457 134.28948032 -133 136 C-131.86333648 136.97936149 -130.751107 137.98872296 -129.6796875 139.0390625 C-123.43091659 144.80477606 -123.43091659 144.80477606 -117.0625 150.4375 C-113.47041211 153.54964295 -109.98451718 156.76875835 -106.5 160 C-102.3814481 163.81850942 -98.23625005 167.59072265 -93.98828125 171.265625 C-89.94603522 174.79167065 -85.97964245 178.40364278 -82 182 C-79.07356763 180.67143806 -76.9299237 179.20435823 -74.609375 176.98828125 C-73.98659668 176.39901855 -73.36381836 175.80975586 -72.72216797 175.20263672 C-71.74594482 174.26701904 -71.74594482 174.26701904 -70.75 173.3125 C-69.39407871 172.02904981 -68.03731778 170.74648604 -66.6796875 169.46484375 C-66.03612305 168.85624512 -65.39255859 168.24764648 -64.72949219 167.62060547 C-62.81523616 165.82686866 -60.86342645 164.08607083 -58.875 162.375 C-55.38416877 159.36984964 -52.00324224 156.25526231 -48.625 153.125 C-43.9231687 148.76870302 -39.1967717 144.44395333 -34.41796875 140.171875 C-32.7022821 138.63080589 -30.99762934 137.07741283 -29.30078125 135.515625 C-28.41777344 134.70609375 -27.53476562 133.8965625 -26.625 133.0625 C-25.83351563 132.33160156 -25.04203125 131.60070312 -24.2265625 130.84765625 C-22 129 -22 129 -18 127 C-18 99.94 -18 72.88 -18 45 C-20.64 46.98 -23.28 48.96 -26 51 C-29.23244962 52.61622481 -32.50573136 52.58454308 -36 52 C-39.81698883 49.91649081 -42.38405285 47.02859383 -44 43 C-44.41249605 39.1500369 -43.98448872 35.44132122 -41.77148438 32.20141602 C-40.97194336 31.33021118 -40.97194336 31.33021118 -40.15625 30.44140625 C-39.20987671 29.40862549 -39.20987671 29.40862549 -38.24438477 28.35498047 C-34.19518365 24.1062484 -30.11696468 19.8926233 -25.97485352 15.73461914 C-24.42974383 14.17969456 -22.89563576 12.61440329 -21.36132812 11.04882812 C-20.36524246 10.04621973 -19.36851977 9.04424372 -18.37109375 8.04296875 C-17.48349365 7.14602295 -16.59589355 6.24907715 -15.68139648 5.32495117 C-10.847647 1.13376512 -6.42425672 -1.08885707 0 0 Z " fill="#54305F" transform="translate(477,63)"/>
<path d="M0 0 C2.6875 1.25 2.6875 1.25 5 3 C5.763125 3.495 6.52625 3.99 7.3125 4.5 C9.64909337 7.9616198 9.61694663 10.85505902 9.82421875 14.953125 C8.90859481 18.33789595 7.77262458 19.62293565 5.44848633 22.19042969 C4.80623611 22.9054364 4.1639859 23.62044312 3.50227356 24.3571167 C3.00652328 24.89926819 2.51077301 25.44141968 2 26 C3.01984482 26.00586624 4.03968964 26.01173248 5.09043884 26.01777649 C14.72686248 26.07512351 24.36306304 26.14794737 33.999259 26.23571491 C38.95269565 26.28033961 43.90605156 26.31961302 48.85961914 26.34643555 C53.6449142 26.37254749 58.4298972 26.41300533 63.21499825 26.46318626 C65.03568181 26.47980175 66.85641929 26.49134901 68.67716789 26.49761391 C71.23815079 26.5073132 73.79834482 26.53544061 76.35913086 26.56762695 C77.10288467 26.56619186 77.84663849 26.56475677 78.6129303 26.5632782 C90.10860403 26.76607117 98.14342063 31.80315771 106.01171875 39.87890625 C108.3936933 42.41999109 110.68241368 45.02748564 112.953125 47.66796875 C115.58166688 50.66270063 118.28926718 53.57975602 121 56.5 C124.21176007 59.96270951 127.4110352 63.4264917 130.5 67 C133.55154909 70.52788846 136.70542153 73.95354753 139.875 77.375 C154.33192439 92.98218784 154.33192439 92.98218784 156.34545898 96.04980469 C158.86899786 99.57814741 160.61638859 101.70171257 164.96362305 102.63891602 C168.47643016 102.79659621 171.92387316 102.76167268 175.4375 102.625 C189.50388263 102.16755666 189.50388263 102.16755666 195.62915039 107.50537109 C198.62352956 110.77012431 198.44653285 114.12933353 198.421875 118.3828125 C197.73288992 122.65707177 195.33018946 125.3504332 192 128 C188.80549919 129.0648336 186.8157179 129.01468455 183.4765625 128.859375 C169.13126775 128.05849614 169.13126775 128.05849614 156.8840332 134.31152344 C154.39553517 137.0841672 152.17126586 139.97647028 150 143 C148.82852627 144.34743583 147.64360723 145.6834745 146.4375 147 C145.92058594 147.6084375 145.40367187 148.216875 144.87109375 148.84375 C142.31353311 151.79108501 139.65533464 154.64084523 137 157.5 C133.78814734 160.96261762 130.58896046 164.42649672 127.5 168 C123.90225799 172.1620937 120.15345859 176.1801017 116.41113281 180.21166992 C113.63924396 183.20379223 110.90984865 186.21951086 108.25 189.3125 C101.61170114 196.91754141 96.64859371 201.7838021 87 205 C85.41966808 205.08705429 83.83589622 205.11767952 82.25317383 205.11352539 C81.29240433 205.11344986 80.33163483 205.11337433 79.3417511 205.11329651 C78.30729355 205.10813522 77.272836 205.10297394 76.20703125 205.09765625 C74.61528328 205.09553383 74.61528328 205.09553383 72.99137878 205.09336853 C69.59839065 205.08776606 66.20546823 205.07521314 62.8125 205.0625 C60.51367283 205.05748532 58.21484462 205.05292236 55.91601562 205.04882812 C50.27732128 205.03779583 44.63866534 205.0210553 39 205 C39.49371094 205.62648438 39.98742187 206.25296875 40.49609375 206.8984375 C41.13675781 207.71570313 41.77742188 208.53296875 42.4375 209.375 C43.07558594 210.18710937 43.71367187 210.99921875 44.37109375 211.8359375 C47.54560524 216.05339401 47.65173214 219.8397099 47 225 C44.83603101 228.63237651 42.83285634 230.3653995 39 232 C35.24907739 232.79671852 31.54924088 233.00097196 28.23876953 230.86206055 C27.3819458 230.06989136 27.3819458 230.06989136 26.5078125 229.26171875 C25.81945312 228.6267749 25.13109375 227.99183105 24.421875 227.33764648 C19.84547512 222.92040567 15.31425843 218.46156446 10.82519531 213.95556641 C9.11116533 212.23612162 7.3917829 210.52215693 5.671875 208.80859375 C4.5751996 207.71125844 3.47883397 206.61361345 2.3828125 205.515625 C1.87138702 205.00622375 1.35996155 204.49682251 0.83303833 203.97198486 C-5.28830177 197.80998393 -5.28830177 197.80998393 -5.5625 192.8125 C-5.35756228 186.71316314 -2.16586976 184.11936085 2 180 C3.6758343 178.20919382 5.33412092 176.4028604 6.99389648 174.59716797 C27.27999617 152.59809249 27.27999617 152.59809249 33.2109375 151.64453125 C38.03120023 152.01866717 40.67988328 153.09143487 44.0625 156.625 C46.28471904 159.51905271 46.99166882 160.95607195 47.6875 164.625 C46.48448416 170.53071412 42.68460788 174.40198092 39 179 C45.13563898 179.25550732 51.26134511 179.40102461 57.40209961 179.45166016 C59.48282486 179.48348585 61.56334035 179.54363553 63.64233398 179.63427734 C76.99315215 180.35514638 76.99315215 180.35514638 88.56591797 174.6171875 C91.8321697 171.35420534 94.67440638 167.84175001 97.40460205 164.12405396 C101.65125774 158.47021328 106.5842463 153.31857983 111.375 148.125 C115.54614872 143.59226564 119.6877279 139.0348671 123.80078125 134.44921875 C125.33572765 132.73978466 126.87515116 131.03436472 128.41796875 129.33203125 C129.20816406 128.45933594 129.99835938 127.58664062 130.8125 126.6875 C131.52019531 125.90761719 132.22789062 125.12773437 132.95703125 124.32421875 C135.05169744 121.94118551 137.03711035 119.4922082 139 117 C137.39606486 113.13222498 134.77365804 110.37350031 131.9375 107.375 C130.93840325 106.30245472 129.93971093 105.22953257 128.94140625 104.15625 C128.44398926 103.62386719 127.94657227 103.09148437 127.43408203 102.54296875 C125.38918002 100.34280179 123.3808327 98.11077825 121.375 95.875 C120.64796875 95.06546875 119.9209375 94.2559375 119.171875 93.421875 C117.72395833 91.80729167 116.27604167 90.19270833 114.828125 88.578125 C110.70355281 83.98551625 106.55359624 79.41837737 102.375 74.875 C91.21122398 62.72725887 91.21122398 62.72725887 88.81031609 59.30345821 C86.06331759 55.6260419 84.74364421 54.16893813 80.12747192 53.12025452 C78.65202917 53.0825933 77.17530623 53.08259479 75.69970703 53.11352539 C74.88928452 53.10274963 74.078862 53.09197388 73.24388123 53.08087158 C70.58091975 53.05359157 67.92078056 53.07531107 65.2578125 53.09765625 C63.40548959 53.08826835 61.55317991 53.07580882 59.70089722 53.06040955 C54.83775148 53.02820357 49.9755494 53.03761869 45.11236572 53.05578613 C40.1451182 53.06694963 35.1781116 53.03863524 30.2109375 53.01367188 C20.47378994 52.97054001 10.73718262 52.97138904 1 53 C1.74056641 53.93972656 1.74056641 53.93972656 2.49609375 54.8984375 C3.13675781 55.71570313 3.77742188 56.53296875 4.4375 57.375 C5.07558594 58.18710938 5.71367187 58.99921875 6.37109375 59.8359375 C9.26191697 63.6765036 9.40149742 66.18203093 9 71 C6.56523417 75.86953166 4.13656401 78.18709505 -1 80 C-4.375 80.625 -4.375 80.625 -8 80 C-14.89160069 75.18242377 -20.74087382 68.47762891 -26.69262695 62.54760742 C-28.31997215 60.9300729 -29.95769607 59.32352466 -31.59570312 57.71679688 C-32.64388462 56.67513831 -33.69143349 55.63284269 -34.73828125 54.58984375 C-35.46486687 53.88177834 -35.46486687 53.88177834 -36.20613098 53.15940857 C-40.26178306 49.07697375 -42.71912738 45.24698092 -43.4375 39.5 C-42.60293313 32.82346507 -37.72274165 28.42200636 -33.1328125 23.8671875 C-32.57560516 23.30806671 -32.01839783 22.74894592 -31.44430542 22.17288208 C-30.27180383 20.9990272 -29.09680364 19.8276632 -27.91943359 18.65869141 C-26.13013723 16.88010647 -24.35176645 15.0910994 -22.57421875 13.30078125 C-21.42772399 12.15560824 -20.28060891 11.01105587 -19.1328125 9.8671875 C-18.60761017 9.33793671 -18.08240784 8.80868591 -17.54129028 8.26339722 C-12.25360135 3.04143559 -7.84827366 -0.99887119 0 0 Z " fill="#54305F" transform="translate(164,194)"/>
<path d="M0 0 C5.00277729 2.93710005 8.9865774 6.62236292 13.11328125 10.671875 C13.76830124 11.31312317 14.42332123 11.95437134 15.09819031 12.61505127 C16.47334057 13.9670362 17.84559543 15.32197181 19.21508789 16.6796875 C21.30819235 18.74574801 23.42404772 20.78656134 25.54101562 22.828125 C26.87908444 24.14954442 28.21572308 25.47241393 29.55078125 26.796875 C30.18301102 27.39924988 30.81524078 28.00162476 31.46662903 28.62225342 C35.77158441 32.97110913 36.94176178 35.84763402 37 42 C35.1480638 47.71748557 30.9897035 51.32135692 26.75 55.375 C25.38611863 56.7050835 24.02411182 58.03709212 22.6640625 59.37109375 C21.69968262 60.31637939 21.69968262 60.31637939 20.71582031 61.28076172 C18.74854718 63.25195373 16.91469708 65.30428287 15.125 67.4375 C11.20221362 72.08370932 6.48480419 77.2575979 1 80 C-3.99379386 80.3768901 -7.05989069 80.19468322 -11 77 C-14.22292384 73.25443986 -15.76401245 70.13693644 -15.53125 65.09375 C-14.28745993 60.19175384 -10.49126709 56.49126709 -7 53 C-29.52061726 50.20453729 -29.52061726 50.20453729 -50.39453125 55.8359375 C-53.44318997 58.62501281 -55.81366822 61.78211398 -57.95947266 65.30419922 C-59.28292514 67.46109762 -60.8915325 69.22589714 -62.625 71.0625 C-63.13289062 71.66191406 -63.64078125 72.26132812 -64.1640625 72.87890625 C-66.70714319 75.81697607 -69.35575829 78.65306801 -72 81.5 C-75.76210882 85.55579009 -79.46615568 89.64475806 -83.08203125 93.83203125 C-86.23532518 97.39634516 -89.48777767 100.87003871 -92.73828125 104.34570312 C-94.17162645 105.88598639 -95.58782995 107.44031274 -97 109 C-98.20076172 110.30904297 -98.20076172 110.30904297 -99.42578125 111.64453125 C-101.23358445 113.80071779 -101.23358445 113.80071779 -100.78051758 115.93530273 C-99.88643979 118.30039997 -98.83722027 119.57467463 -97.0859375 121.390625 C-96.49337158 122.01348389 -95.90080566 122.63634277 -95.2902832 123.27807617 C-94.65823975 123.92881104 -94.02619629 124.5795459 -93.375 125.25 C-92.08377326 126.60464748 -90.79339771 127.96010685 -89.50390625 129.31640625 C-88.88918457 129.95980957 -88.27446289 130.60321289 -87.64111328 131.26611328 C-85.81315521 133.19740727 -84.0468915 135.17185583 -82.3125 137.1875 C-79.48049661 140.47604802 -76.56295547 143.68126606 -73.625 146.875 C-69.45486672 151.40867972 -65.31228657 155.96511677 -61.19921875 160.55078125 C-59.66427235 162.26021534 -58.12484884 163.96563528 -56.58203125 165.66796875 C-55.79183594 166.54066406 -55.00164062 167.41335938 -54.1875 168.3125 C-53.47980469 169.09238281 -52.77210938 169.87226563 -52.04296875 170.67578125 C-50 173 -50 173 -48.40557861 175.60978699 C-45.57036712 178.42688861 -43.83934738 178.58596599 -39.91772461 178.62210083 C-39.10924072 178.60412445 -38.30075684 178.58614807 -37.46777344 178.56762695 C-36.17942596 178.56872215 -36.17942596 178.56872215 -34.86505127 178.56983948 C-32.02918095 178.56635903 -29.19495796 178.52747699 -26.359375 178.48828125 C-24.39211932 178.47895474 -22.42485202 178.47183786 -20.45758057 178.46684265 C-15.28202195 178.44776018 -10.10716595 178.3986483 -4.93188477 178.34332275 C0.35000097 178.2921574 5.63200033 178.26933439 10.9140625 178.24414062 C21.27635022 178.19053103 31.63811666 178.10520284 42 178 C41.25943359 177.16855469 41.25943359 177.16855469 40.50390625 176.3203125 C39.86324219 175.59585938 39.22257813 174.87140625 38.5625 174.125 C37.60537109 173.04605469 37.60537109 173.04605469 36.62890625 171.9453125 C33.59491483 168.32198461 33.6826425 165.68102318 34 161 C35.90455662 156.45022584 38.63649778 154.22291622 43 152 C46.74292383 151.33948403 49.98875806 151.605369 53.5625 153 C55.6826316 154.73959516 57.22251422 156.36739922 58.9765625 158.44921875 C64.0912442 164.35421181 69.70163148 169.75981395 75.26147461 175.2409668 C76.6620081 176.62345034 78.0595637 178.00894861 79.45703125 179.39453125 C80.28178955 180.20768799 81.10654785 181.02084473 81.95629883 181.85864258 C85.41917708 185.48699106 86.24205125 187.78489445 86.4609375 192.76953125 C85.18929517 198.92298695 79.69628113 203.59823539 75.40625 207.859375 C74.77771118 208.48982727 74.14917236 209.12027954 73.50158691 209.76983643 C72.17945823 211.09331933 70.85482763 212.41430713 69.52783203 213.73291016 C67.49927142 215.75072472 65.48164704 217.7790352 63.46484375 219.80859375 C62.17512025 221.09699622 60.88477679 222.38477847 59.59375 223.671875 C58.99260376 224.2770697 58.39145752 224.8822644 57.77209473 225.50579834 C56.92101135 226.34742523 56.92101135 226.34742523 56.05273438 227.20605469 C55.55849976 227.69869812 55.06426514 228.19134155 54.55505371 228.69891357 C51.38618972 231.35024703 48.73478465 232.34608713 44.625 232 C40.36055481 231.38777767 37.90562313 230.07021545 35.09765625 226.80859375 C33.16629345 223.62631269 32.6884867 220.68624073 33 217 C34.35572797 213.0923135 36.4471147 210.39674304 39.12109375 207.31640625 C39.66048584 206.6932251 40.19987793 206.07004395 40.75561523 205.42797852 C41.16626221 204.95674561 41.57690918 204.4855127 42 204 C40.85709503 204.01110306 39.71419006 204.02220612 38.53665161 204.03364563 C27.73820496 204.13523526 16.93985593 204.21006782 6.14103889 204.25906086 C0.58991624 204.28509602 -4.96081901 204.32038308 -10.51171875 204.37719727 C-15.87395127 204.43173368 -21.23581237 204.46146623 -26.59830093 204.47438622 C-28.63875292 204.48358732 -30.67918578 204.50155479 -32.71947861 204.52865028 C-44.69084807 204.68123388 -53.7269127 204.73829408 -63.48046875 197.04296875 C-64.32544922 196.12451172 -64.32544922 196.12451172 -65.1875 195.1875 C-65.83589844 194.49398437 -66.48429688 193.80046875 -67.15234375 193.0859375 C-68.06693359 192.05339844 -68.06693359 192.05339844 -69 191 C-69.53753906 190.39414062 -70.07507813 189.78828125 -70.62890625 189.1640625 C-71.74280813 187.89179867 -72.85056499 186.61413658 -73.953125 185.33203125 C-76.58166688 182.33729937 -79.28926718 179.42024398 -82 176.5 C-85.21176007 173.03729049 -88.4110352 169.5735083 -91.5 166 C-95.05683038 161.88795707 -98.75583684 157.9123038 -102.45043945 153.92456055 C-105.55249547 150.57414602 -108.6344202 147.20778139 -111.6875 143.8125 C-112.70372437 142.70708862 -112.70372437 142.70708862 -113.74047852 141.5793457 C-116 139 -116 139 -117.89111328 136.37109375 C-120.94096304 132.35746455 -123.24631127 129.44167853 -128.25415039 128.18041992 C-131.93343599 127.97253204 -135.50676719 128.01241025 -139.1875 128.1875 C-153.10104313 128.62702674 -153.10104313 128.62702674 -156.7734375 125.62890625 C-160.20105901 121.58190752 -161.22128608 118.82890513 -161.0625 113.5625 C-160.43051627 108.88894133 -158.44600687 106.89481377 -154.7890625 104.09375 C-151.24105981 101.92466538 -148.54059904 101.97024001 -144.51171875 102.2109375 C-131.17297328 103.06962893 -131.17297328 103.06962893 -119.4140625 97.87890625 C-116.33951994 94.7745485 -113.71965169 91.37322392 -111.23828125 87.78222656 C-109.74951342 85.63948107 -108.076863 83.7320616 -106.3125 81.8125 C-105.80074219 81.21824219 -105.28898437 80.62398438 -104.76171875 80.01171875 C-101.95894003 76.81120646 -99.06702469 73.69235428 -96.18676758 70.56176758 C-93.27166704 67.39166422 -90.37593864 64.2057954 -87.5 61 C-83.68449398 56.74687322 -79.8265748 52.5346638 -75.95410156 48.33349609 C-73.32811696 45.47678808 -70.76484495 42.57966088 -68.25 39.625 C-62.89849761 33.4962556 -57.13386364 27.80938322 -48.71279907 26.69819641 C-46.10895359 26.55969606 -43.51761142 26.50670301 -40.91015625 26.48828125 C-39.4933683 26.46135445 -39.4933683 26.46135445 -38.04795837 26.43388367 C-35.05285 26.38001844 -32.05789881 26.34596142 -29.0625 26.3125 C-27.0227647 26.27930593 -24.98305008 26.24481435 -22.94335938 26.20898438 C-17.96235343 26.12430565 -12.98139217 26.05738128 -8 26 C-8.56879883 25.39889404 -9.13759766 24.79778809 -9.72363281 24.1784668 C-10.45936523 23.38093994 -11.19509766 22.58341309 -11.953125 21.76171875 C-12.68692383 20.97498779 -13.42072266 20.18825684 -14.17675781 19.37768555 C-16.03403737 16.95561196 -16.63905327 15.81418528 -16.75 12.8125 C-15.90447403 8.51440964 -14.89725264 6.27847009 -12 3 C-7.94891762 0.35798975 -4.8162435 -0.70236884 0 0 Z " fill="#532E5E" transform="translate(582,195)"/>
<path d="M0 0 C0.74386963 -0.00056396 1.48773926 -0.00112793 2.25415039 -0.00170898 C9.94441251 0.14891908 17.08163218 1.91581609 24 5.375 C22.65150163 9.73470831 20.95092154 13.68841438 18.875 17.75 C18.33617187 18.80960938 17.79734375 19.86921875 17.2421875 20.9609375 C16.83226562 21.75757813 16.42234375 22.55421875 16 23.375 C15.27941406 23.21644531 14.55882812 23.05789063 13.81640625 22.89453125 C8.61243909 21.93457614 3.17362777 21.15564784 -1.5625 23.8125 C-3.70151949 27.62553474 -3.74402543 31.02343229 -4 35.375 C-0.7 35.375 2.6 35.375 6 35.375 C5.67 34.385 5.34 33.395 5 32.375 C13.91 32.375 22.82 32.375 32 32.375 C38.68777913 49.2464428 44.83810983 66.30639715 51 83.375 C53.67887042 76.88696915 56.07420723 70.37235589 58.19921875 63.68359375 C58.47973587 62.8122731 58.76025299 61.94095245 59.04927063 61.04322815 C59.93202311 58.30071188 60.81026589 55.55678595 61.6875 52.8125 C62.57563632 50.03614311 63.46483143 47.2601528 64.35786438 44.48536682 C64.91057015 42.76798845 65.46045396 41.04969883 66.00724792 39.33042908 C67.88736217 33.48763783 67.88736217 33.48763783 69 32.375 C70.92667507 32.28751793 72.85651861 32.26802666 74.78515625 32.27734375 C75.95498047 32.28056641 77.12480469 32.28378906 78.33007812 32.28710938 C79.56177734 32.29548828 80.79347656 32.30386719 82.0625 32.3125 C83.91584961 32.31926758 83.91584961 32.31926758 85.80664062 32.32617188 C88.87114117 32.33800392 91.93554721 32.35448827 95 32.375 C88.04657663 51.09206822 80.78417744 69.69053912 73.53259277 88.29364014 C71.39945878 93.7680332 69.27759763 99.24634206 67.1781311 104.73373413 C66.11823601 107.49732695 65.04659584 110.25624134 63.97125244 113.01385498 C63.27639591 114.80688708 62.59663106 116.60574536 61.91748047 118.40478516 C57.96906739 128.45927183 52.92931036 136.52716024 43 141.375 C42.26523437 141.74109375 41.53046875 142.1071875 40.7734375 142.484375 C37.09581121 143.66535922 33.5730099 143.71606127 29.75 143.6875 C28.99219238 143.68331055 28.23438477 143.67912109 27.45361328 143.67480469 C18.71292851 143.49837687 12.37852197 140.92770504 5 136.375 C6.52853935 132.10313475 8.71509481 128.38173137 11.125 124.5625 C11.49753906 123.96501953 11.87007812 123.36753906 12.25390625 122.75195312 C13.1657048 121.29073749 14.08235976 119.83255415 15 118.375 C20.75 120.25 20.75 120.25 23 121.375 C27.07909806 121.75982057 29.29089873 121.81621857 32.8125 119.625 C35.54875094 116.85944365 35.54875094 116.85944365 37 113.375 C36.56579016 107.30337222 34.5494202 102.387881 32.10546875 96.85546875 C31.71684158 95.95685623 31.32821442 95.05824371 30.92781067 94.13240051 C29.68900452 91.27222964 28.43868078 88.41727627 27.1875 85.5625 C25.94952512 82.717406 24.71395931 79.87127929 23.47932434 77.0247345 C22.71267305 75.25940229 21.94369909 73.49507615 21.17192078 71.73197937 C14 55.30124013 14 55.30124013 14 52.375 C8.06 52.375 2.12 52.375 -4 52.375 C-4 72.505 -4 92.635 -4 113.375 C-12.58 113.375 -21.16 113.375 -30 113.375 C-30 93.575 -30 73.775 -30 53.375 C-33.63 53.375 -37.26 53.375 -41 53.375 C-41 47.435 -41 41.495 -41 35.375 C-37.37 35.375 -33.74 35.375 -30 35.375 C-30.061875 33.951875 -30.12375 32.52875 -30.1875 31.0625 C-30.13634062 22.02007931 -28.29307922 14.62434755 -21.8984375 8.02734375 C-19.08181671 5.57584047 -16.37270656 3.99889575 -13 2.375 C-12.27039063 2.01921875 -11.54078125 1.6634375 -10.7890625 1.296875 C-7.18275568 0.10487443 -3.75914756 -0.00717636 0 0 Z " fill="#020202" transform="translate(689,700.625)"/>
<path d="M0 0 C1.19919067 -0.02211548 1.19919067 -0.02211548 2.42260742 -0.04467773 C10.31510681 0.09130157 16.63812393 3.14433927 22.375 8.5625 C26.375 13.8597973 26.375 13.8597973 26.375 17.5625 C27.035 17.5625 27.695 17.5625 28.375 17.5625 C28.58125 16.881875 28.7875 16.20125 29 15.5 C32.0497525 8.98461965 36.64594014 4.45730264 43.1953125 1.44140625 C47.33643434 0.29674726 51.21837995 0.09358334 55.5 0.0625 C56.2518457 0.05613525 57.00369141 0.04977051 57.77832031 0.04321289 C65.94644684 0.22836425 72.49718128 2.68468128 78.375 8.5625 C85.29910371 17.67316278 85.66207443 26.0012102 85.5703125 37.15234375 C85.5674826 38.45200577 85.56465271 39.75166779 85.56173706 41.0907135 C85.55414655 44.52499255 85.53453823 47.95909907 85.5123291 51.39331055 C85.49177122 54.90606308 85.48260417 58.41884466 85.47265625 61.93164062 C85.45235184 68.8087455 85.41319444 75.68537826 85.375 82.5625 C76.795 82.5625 68.215 82.5625 59.375 82.5625 C59.34921875 79.02273438 59.3234375 75.48296875 59.296875 71.8359375 C59.25844178 68.40047314 59.21328544 64.9651582 59.16748047 61.52978516 C59.13928805 59.14574337 59.11806497 56.76160842 59.10400391 54.37744141 C59.08255131 50.94645548 59.03588636 47.51658776 58.984375 44.0859375 C58.98314636 43.02321625 58.98191772 41.960495 58.98065186 40.86557007 C58.86132123 34.81036344 58.46959119 31.14356806 54.375 26.5625 C49.68903734 23.43852489 44.85600879 23.86649888 39.375 24.5625 C34.95437523 26.48153091 32.77768867 30.07238913 30.99057007 34.44314575 C29.76845386 38.65078566 29.89194802 42.95664381 29.86328125 47.30859375 C29.83635445 48.8252639 29.83635445 48.8252639 29.80888367 50.37257385 C29.75497958 53.5816743 29.72094851 56.79062769 29.6875 60 C29.6543094 62.18426516 29.61981814 64.36851098 29.58398438 66.55273438 C29.49683127 71.88934177 29.43659133 77.22529229 29.375 82.5625 C20.795 82.5625 12.215 82.5625 3.375 82.5625 C3.34921875 79.02273438 3.3234375 75.48296875 3.296875 71.8359375 C3.25844178 68.40047314 3.21328544 64.9651582 3.16748047 61.52978516 C3.13928805 59.14574337 3.11806497 56.76160842 3.10400391 54.37744141 C3.08255131 50.94645548 3.03588636 47.51658776 2.984375 44.0859375 C2.98314636 43.02321625 2.98191772 41.960495 2.98065186 40.86557007 C2.86132123 34.81036344 2.46959119 31.14356806 -1.625 26.5625 C-6.30751706 23.44082196 -11.14744334 23.8596918 -16.625 24.5625 C-21.41921362 26.72732902 -23.75410742 30.81690201 -25.625 35.5625 C-26.08342251 39.18350634 -26.11334851 42.78293561 -26.13671875 46.4296875 C-26.15466995 47.46441193 -26.17262115 48.49913635 -26.19111633 49.56521606 C-26.24510969 52.85593647 -26.27908042 56.14651271 -26.3125 59.4375 C-26.34568269 61.67449918 -26.38017323 63.91147936 -26.41601562 66.1484375 C-26.5032816 71.61981118 -26.5634457 77.09053541 -26.625 82.5625 C-35.205 82.5625 -43.785 82.5625 -52.625 82.5625 C-52.625 55.8325 -52.625 29.1025 -52.625 1.5625 C-44.045 1.5625 -35.465 1.5625 -26.625 1.5625 C-26.295 5.1925 -25.965 8.8225 -25.625 12.5625 C-24.449375 10.9846875 -24.449375 10.9846875 -23.25 9.375 C-16.62181055 1.87828917 -9.7263993 0.11919837 0 0 Z " fill="#010101" transform="translate(199.625,731.4375)"/>
<path d="M0 0 C8.91 0 17.82 0 27 0 C27.33 2.97 27.66 5.94 28 9 C28.58007812 8.51789062 29.16015625 8.03578125 29.7578125 7.5390625 C30.53898437 6.90742187 31.32015625 6.27578125 32.125 5.625 C33.27355469 4.68527344 33.27355469 4.68527344 34.4453125 3.7265625 C41.89905587 -1.31098271 51.33963031 -0.9803434 60 0 C70.15250266 2.54096156 77.69737732 8.05345778 83.3125 16.8125 C89.75622727 28.57625279 90.84751501 41.43884887 88.30859375 54.578125 C84.74086872 66.22174645 78.26749337 74.4114733 67.62109375 80.3203125 C58.56223495 84.47895394 47.36932639 84.36415411 38 81 C34.25081751 78.74797428 31.08502783 76.08502783 28 73 C27.67 85.87 27.34 98.74 27 112 C18.09 112 9.18 112 0 112 C0 75.04 0 38.08 0 0 Z " fill="#050505" transform="translate(297,732)"/>
<path d="M0 0 C8.58 0 17.16 0 26 0 C26 7.26 26 14.52 26 22 C33.26 22 40.52 22 48 22 C48 27.61 48 33.22 48 39 C40.74 39 33.48 39 26 39 C26.07403144 44.05456011 26.15688304 49.10735995 26.26245117 54.16113281 C26.29567681 55.87978965 26.32371616 57.59855499 26.34643555 59.31738281 C26.38002561 61.79018323 26.43234178 64.26199156 26.48828125 66.734375 C26.49467117 67.50118591 26.5010611 68.26799683 26.50764465 69.05804443 C26.59682607 72.30396658 26.79389552 74.63385131 28.40161133 77.48999023 C29.89885619 79.17037319 29.89885619 79.17037319 32.0859375 79.42578125 C32.84132813 79.38839844 33.59671875 79.35101562 34.375 79.3125 C35.16519531 79.27769531 35.95539063 79.24289062 36.76953125 79.20703125 C39.23286454 78.9783856 41.60319046 78.61853149 44 78 C46.41862058 83.93661416 47.9007105 89.68878497 49 96 C47.41800369 96.64910154 45.83434276 97.29414694 44.25 97.9375 C42.92742187 98.47697266 42.92742187 98.47697266 41.578125 99.02734375 C33.71076831 101.99548286 24.06443169 102.44052075 15.9375 100.12890625 C8.52759756 96.68375344 3.80505979 91.61059589 0.64375305 84.097229 C-0.56322731 80.16510904 -0.36452406 76.20751257 -0.29296875 72.12890625 C-0.28872391 71.206577 -0.28447906 70.28424774 -0.28010559 69.33396912 C-0.26341364 66.40983965 -0.22577938 63.48641851 -0.1875 60.5625 C-0.17244089 58.57097355 -0.15875464 56.57943621 -0.14648438 54.58789062 C-0.11354122 49.72499062 -0.06182499 44.8626151 0 40 C-3.63 40 -7.26 40 -11 40 C-11 39.01 -11 38.02 -11 37 C-16.61 40.3 -22.22 43.6 -28 47 C-30.24609375 45.47005208 -32.4921875 43.94010417 -34.73828125 42.41015625 C-39.56493282 39.40079318 -44.47703641 39.39658061 -50 40 C-53.83259118 41.30834282 -56.42255345 43.23007126 -58.875 46.5 C-62.02300799 53.49557332 -62.2269129 62.16625882 -60.3515625 69.5546875 C-58.56706576 73.59649635 -56.20932323 76.40561634 -52.12109375 78.375 C-46.43964715 80.04909108 -40.33845194 80.10922557 -35.0625 77.25 C-31.68806344 74.88964109 -31.68806344 74.88964109 -28 71 C-22.06 74.3 -16.12 77.6 -10 81 C-11.59006151 87.36024602 -15.67516862 91.24245574 -20.97265625 94.8359375 C-32.42673695 101.41265436 -46.05818259 103.14075063 -58.859375 99.6796875 C-59.56578125 99.45539063 -60.2721875 99.23109375 -61 99 C-62.21429688 98.63261719 -62.21429688 98.63261719 -63.453125 98.2578125 C-73.27016203 94.85497451 -79.57592887 88.51296327 -84.80859375 79.6875 C-87.7431899 73.06782082 -88.36287846 66.76866598 -88.3125 59.625 C-88.30686035 58.78791504 -88.3012207 57.95083008 -88.29541016 57.08837891 C-88.07558007 45.89880991 -84.99314992 37.1636867 -77.078125 29.0234375 C-68.05686563 20.80639893 -59.27967841 17.60781138 -47.1875 17.6875 C-46.29820801 17.69313965 -45.40891602 17.6987793 -44.49267578 17.70458984 C-33.52483461 17.90788439 -23.29717616 20.75942767 -15.26171875 28.72265625 C-14.10906793 30.09609652 -13.04217517 31.54095476 -12 33 C-11.67 29.37 -11.34 25.74 -11 22 C-7.37 22 -3.74 22 0 22 C0 14.74 0 7.48 0 0 Z " fill="#030303" transform="translate(559,714)"/>
<path d="M0 0 C0.93392578 -0.020625 1.86785156 -0.04125 2.83007812 -0.0625 C12.84975161 -0.11812622 21.51453495 1.98050013 29 8.93359375 C37.25267297 17.47854889 37.62862041 27.25954583 37.48046875 38.6953125 C37.47622391 39.94633759 37.47197906 41.19736267 37.46760559 42.48629761 C37.45375204 45.77762875 37.42690206 49.06850082 37.39349365 52.35968018 C37.36254821 55.73191677 37.34888294 59.10422313 37.33398438 62.4765625 C37.3036181 69.06806863 37.24487323 75.6584534 37.1875 82.25 C28.6075 82.25 20.0275 82.25 11.1875 82.25 C10.6925 78.29 10.6925 78.29 10.1875 74.25 C9.775 74.64832031 9.3625 75.04664063 8.9375 75.45703125 C0.62866579 83.07964477 -6.95949707 83.87539002 -17.8046875 83.53125 C-24.7741896 83.14601727 -30.06165281 80.89714978 -35.203125 76.09765625 C-40.60305732 69.89821938 -42.66940605 63.39168842 -42.30078125 55.21875 C-41.30496929 49.16421329 -38.76621159 44.2565146 -34.5 39.875 C-26.78619725 35.2108402 -20.90564752 33.11343341 -11.76171875 33.15234375 C-11.10291214 33.1537587 -10.44410553 33.15517365 -9.76533508 33.15663147 C-7.67684238 33.162195 -5.58845989 33.17474053 -3.5 33.1875 C-2.07747551 33.19251972 -0.65494934 33.1970818 0.76757812 33.20117188 C4.24092077 33.21215243 7.71419961 33.22939165 11.1875 33.25 C10.7589753 31.7999131 10.31607402 30.35406979 9.8671875 28.91015625 C9.62210449 28.10457275 9.37702148 27.29898926 9.12451172 26.46899414 C7.91638055 23.60794562 6.27753267 22.12358171 3.4453125 20.84375 C-6.18194257 18.3120151 -14.71561361 20.77320625 -23.6953125 24.15625 C-26.8125 25.25 -26.8125 25.25 -29.8125 25.25 C-30.8192004 22.98192796 -31.81801766 20.71092246 -32.8125 18.4375 C-33.09867187 17.79490234 -33.38484375 17.15230469 -33.6796875 16.49023438 C-34.94961041 13.57243531 -35.8125 11.46734286 -35.8125 8.25 C-33.93866097 7.45558928 -32.06337114 6.66460026 -30.1875 5.875 C-29.14335937 5.43414063 -28.09921875 4.99328125 -27.0234375 4.5390625 C-17.96763867 0.90352282 -9.67530836 0.05276242 0 0 Z " fill="#030303" transform="translate(428.8125,731.75)"/>
<path d="M0 0 C8.91 0 17.82 0 27 0 C27 34.98 27 69.96 27 106 C18.09 106 9.18 106 0 106 C0 71.02 0 36.04 0 0 Z " fill="#030303" transform="translate(106,708)"/>
<path d="M0 0 C8.58 0 17.16 0 26 0 C26 27.06 26 54.12 26 82 C17.42 82 8.84 82 0 82 C0 54.94 0 27.88 0 0 Z " fill="#030303" transform="translate(614,732)"/>
<path d="M0 0 C5.50364405 2.37967086 8.18993789 6.06035302 10.73828125 11.38671875 C12.80351814 17.58242942 12.56035058 24.23065697 10.05078125 30.26171875 C7.73901915 34.81198288 4.96370345 38.05146543 0.55078125 40.69921875 C-5.16852269 42.09727083 -10.31011984 42.3625182 -15.63671875 39.69921875 C-20.53727401 35.38206293 -23.95595701 31.36065402 -24.6328125 24.77734375 C-25.0266158 11.43625245 -25.0266158 11.43625245 -20.69921875 5.8671875 C-14.52459946 -0.49199921 -8.69328532 -2.35724662 0 0 Z " fill="#FBFBFB" transform="translate(348.26171875,752.61328125)"/>
<path d="M0 0 C3.54590253 1.95594624 6.18288988 4.36577977 8 8 C8.54317573 12.9509132 8.52241949 16.89488185 6.375 21.4375 C2.73335668 25.36664148 -0.67002467 27.12217703 -6 27.4375 C-10.24630623 27.25887909 -12.76068611 25.7873166 -16 23 C-19.6131829 19.02549881 -19.49777538 14.73923033 -19.359375 9.59765625 C-18.87193429 6.07430762 -17.64113639 4.33929223 -15 2 C-10.31457607 -1.12361595 -5.47636674 -0.833821 0 0 Z " fill="#040404" transform="translate(633,696)"/>
<path d="M0 0 C0.98613281 0.00322266 1.97226562 0.00644531 2.98828125 0.00976562 C4.02082031 0.01814453 5.05335938 0.02652344 6.1171875 0.03515625 C7.67759766 0.04192383 7.67759766 0.04192383 9.26953125 0.04882812 C11.84380712 0.06063673 14.41796896 0.0771055 16.9921875 0.09765625 C17.13120899 6.57870572 16.82057856 9.62644904 12.6171875 14.78515625 C7.92877274 18.57195279 2.5962324 18.58967443 -3.1796875 18.46875 C-6.0078125 18.09765625 -6.0078125 18.09765625 -9.2578125 16.09765625 C-11.69069731 11.92699658 -11.69206021 9.88739024 -11.0078125 5.09765625 C-7.71753226 0.82029194 -5.23136741 -0.03006533 0 0 Z " fill="#F9F9F9" transform="translate(423.0078125,778.90234375)"/>
</svg>
